<svg width="79" height="20" viewBox="0 0 79 20" fill="none" xmlns="http://www.w3.org/2000/svg">
<path d="M5.576 1.72C6.472 1.72 7.16 1.816 7.64 2.008C8.12 2.2 8.536 2.408 8.888 2.632C9.08 2.744 9.232 2.832 9.344 2.896C9.472 2.944 9.592 2.968 9.704 2.968C9.864 2.968 9.976 2.88 10.04 2.704C10.12 2.528 10.184 2.264 10.232 1.912H10.784C10.768 2.216 10.744 2.568 10.712 2.968C10.696 3.368 10.68 3.904 10.664 4.576C10.664 5.232 10.664 6.104 10.664 7.192H10.112C10.064 6.376 9.88 5.592 9.56 4.84C9.256 4.088 8.816 3.472 8.24 2.992C7.68 2.496 6.96 2.248 6.08 2.248C5.296 2.248 4.64 2.48 4.112 2.944C3.6 3.408 3.344 4.032 3.344 4.816C3.344 5.488 3.512 6.056 3.848 6.52C4.184 6.968 4.656 7.408 5.264 7.84C5.888 8.256 6.624 8.736 7.472 9.28C8.256 9.792 8.96 10.304 9.584 10.816C10.208 11.312 10.696 11.864 11.048 12.472C11.416 13.08 11.6 13.824 11.6 14.704C11.6 15.744 11.344 16.608 10.832 17.296C10.32 17.984 9.632 18.496 8.768 18.832C7.904 19.168 6.96 19.336 5.936 19.336C4.992 19.336 4.24 19.24 3.68 19.048C3.136 18.856 2.664 18.656 2.264 18.448C1.912 18.224 1.64 18.112 1.448 18.112C1.288 18.112 1.168 18.2 1.088 18.376C1.024 18.552 0.968 18.816 0.92 19.168H0.368C0.4 18.8 0.416 18.368 0.416 17.872C0.432 17.376 0.44 16.736 0.44 15.952C0.456 15.152 0.464 14.144 0.464 12.928H1.016C1.08 13.952 1.256 14.912 1.544 15.808C1.848 16.688 2.304 17.4 2.912 17.944C3.536 18.488 4.36 18.76 5.384 18.76C5.944 18.76 6.448 18.664 6.896 18.472C7.36 18.264 7.728 17.952 8 17.536C8.272 17.104 8.408 16.56 8.408 15.904C8.408 15.248 8.256 14.672 7.952 14.176C7.648 13.68 7.224 13.216 6.68 12.784C6.136 12.352 5.496 11.912 4.76 11.464C4.008 10.984 3.304 10.496 2.648 10C1.992 9.504 1.464 8.944 1.064 8.32C0.68 7.68 0.488 6.912 0.488 6.016C0.488 5.024 0.728 4.216 1.208 3.592C1.688 2.952 2.312 2.48 3.08 2.176C3.864 1.872 4.696 1.72 5.576 1.72ZM19.3361 6.256C20.7441 6.256 21.8481 6.68 22.6481 7.528C23.4481 8.376 23.8481 9.728 23.8481 11.584H15.7601L15.7361 11.128H21.0641C21.0961 10.344 21.0481 9.624 20.9201 8.968C20.7921 8.296 20.5841 7.76 20.2961 7.36C20.0241 6.96 19.6641 6.76 19.2161 6.76C18.6081 6.76 18.0801 7.12 17.6321 7.84C17.1841 8.544 16.9041 9.704 16.7921 11.32L16.8881 11.464C16.8561 11.672 16.8321 11.896 16.8161 12.136C16.8161 12.376 16.8161 12.616 16.8161 12.856C16.8161 13.96 16.9761 14.872 17.2961 15.592C17.6161 16.312 18.0321 16.84 18.5441 17.176C19.0561 17.512 19.5841 17.68 20.1281 17.68C20.4961 17.68 20.8721 17.624 21.2561 17.512C21.6401 17.4 22.0161 17.192 22.3841 16.888C22.7521 16.584 23.0881 16.152 23.3921 15.592L23.8481 15.784C23.6721 16.344 23.3761 16.904 22.9601 17.464C22.5601 18.008 22.0401 18.456 21.4001 18.808C20.7601 19.16 20.0081 19.336 19.1441 19.336C18.0561 19.336 17.0961 19.096 16.2641 18.616C15.4321 18.136 14.7841 17.424 14.3201 16.48C13.8561 15.52 13.6241 14.352 13.6241 12.976C13.6241 11.52 13.8641 10.296 14.3441 9.304C14.8401 8.312 15.5201 7.56 16.3841 7.048C17.2481 6.52 18.2321 6.256 19.3361 6.256ZM29.8933 0.207999V8.704C30.2933 7.808 30.8453 7.176 31.5493 6.808C32.2693 6.44 33.0453 6.256 33.8773 6.256C34.5333 6.256 35.0693 6.344 35.4853 6.52C35.9013 6.696 36.2373 6.92 36.4933 7.192C36.7653 7.496 36.9573 7.888 37.0693 8.368C37.1973 8.848 37.2613 9.496 37.2613 10.312V16.768C37.2613 17.44 37.3813 17.896 37.6213 18.136C37.8773 18.376 38.3012 18.496 38.8932 18.496V19C38.6053 18.984 38.1653 18.968 37.5733 18.952C36.9813 18.92 36.3973 18.904 35.8213 18.904C35.2453 18.904 34.6773 18.92 34.1173 18.952C33.5573 18.968 33.1333 18.984 32.8453 19V18.496C33.3573 18.496 33.7173 18.376 33.9253 18.136C34.1333 17.896 34.2373 17.44 34.2373 16.768V9.496C34.2373 9.064 34.1973 8.68 34.1173 8.344C34.0373 7.992 33.8773 7.72 33.6373 7.528C33.4133 7.32 33.0693 7.216 32.6053 7.216C32.0933 7.216 31.6293 7.36 31.2133 7.648C30.8133 7.92 30.4933 8.312 30.2533 8.824C30.0133 9.32 29.8933 9.888 29.8933 10.528V16.768C29.8933 17.44 29.9973 17.896 30.2053 18.136C30.4293 18.376 30.7893 18.496 31.2853 18.496V19C31.0133 18.984 30.6053 18.968 30.0613 18.952C29.5333 18.92 28.9813 18.904 28.4053 18.904C27.8293 18.904 27.2293 18.92 26.6053 18.952C25.9973 18.968 25.5413 18.984 25.2373 19V18.496C25.8293 18.496 26.2453 18.376 26.4853 18.136C26.7413 17.896 26.8693 17.44 26.8693 16.768V3.088C26.8693 2.368 26.7493 1.84 26.5093 1.504C26.2853 1.152 25.8613 0.975999 25.2373 0.975999V0.472C25.7493 0.519999 26.2453 0.543999 26.7253 0.543999C27.3333 0.543999 27.9013 0.519999 28.4293 0.472C28.9573 0.408 29.4453 0.319999 29.8933 0.207999ZM44.3548 0.207999V16.768C44.3548 17.44 44.4748 17.896 44.7148 18.136C44.9708 18.376 45.3948 18.496 45.9868 18.496V19C45.6988 18.984 45.2588 18.968 44.6668 18.952C44.0908 18.92 43.4988 18.904 42.8908 18.904C42.2988 18.904 41.6908 18.92 41.0668 18.952C40.4588 18.968 40.0028 18.984 39.6988 19V18.496C40.2908 18.496 40.7068 18.376 40.9468 18.136C41.2028 17.896 41.3308 17.44 41.3308 16.768V3.088C41.3308 2.368 41.2188 1.84 40.9948 1.504C40.7708 1.152 40.3388 0.975999 39.6988 0.975999V0.472C40.2108 0.519999 40.7068 0.543999 41.1868 0.543999C41.7948 0.543999 42.3628 0.519999 42.8908 0.472C43.4188 0.408 43.9068 0.319999 44.3548 0.207999ZM58.4844 6.592V7.096C58.1804 7.16 57.8924 7.328 57.6204 7.6C57.3644 7.872 57.1164 8.352 56.8764 9.04L53.2044 19.072C53.0124 19.056 52.8204 19.048 52.6284 19.048C52.4364 19.048 52.2364 19.056 52.0284 19.072L47.7084 8.44C47.4684 7.832 47.2204 7.456 46.9644 7.312C46.7084 7.168 46.4924 7.096 46.3164 7.096V6.592C46.7644 6.624 47.2284 6.656 47.7084 6.688C48.1884 6.704 48.7164 6.712 49.2924 6.712C49.7884 6.712 50.3084 6.704 50.8524 6.688C51.4124 6.656 51.9324 6.624 52.4124 6.592V7.096C52.0604 7.096 51.7404 7.12 51.4524 7.168C51.1804 7.216 50.9964 7.344 50.9004 7.552C50.8044 7.744 50.8444 8.088 51.0204 8.584L53.9004 16.048L53.6844 16.312L55.8684 10.384C56.1404 9.632 56.2524 9.024 56.2044 8.56C56.1564 8.096 55.9804 7.744 55.6764 7.504C55.3884 7.264 54.9724 7.128 54.4284 7.096V6.592C54.7004 6.608 54.9564 6.624 55.1964 6.64C55.4524 6.656 55.7004 6.672 55.9404 6.688C56.1964 6.688 56.4364 6.688 56.6604 6.688C56.9964 6.688 57.3244 6.68 57.6444 6.664C57.9804 6.648 58.2604 6.624 58.4844 6.592ZM64.8751 6.256C66.2831 6.256 67.3871 6.68 68.1871 7.528C68.9871 8.376 69.3871 9.728 69.3871 11.584H61.2991L61.2751 11.128H66.6031C66.6351 10.344 66.5871 9.624 66.4591 8.968C66.3311 8.296 66.1231 7.76 65.8351 7.36C65.5631 6.96 65.2031 6.76 64.7551 6.76C64.1471 6.76 63.6191 7.12 63.1711 7.84C62.7231 8.544 62.4431 9.704 62.3311 11.32L62.4271 11.464C62.3951 11.672 62.3711 11.896 62.3551 12.136C62.3551 12.376 62.3551 12.616 62.3551 12.856C62.3551 13.96 62.5151 14.872 62.8351 15.592C63.1551 16.312 63.5711 16.84 64.0831 17.176C64.5951 17.512 65.1231 17.68 65.6671 17.68C66.0351 17.68 66.4111 17.624 66.7951 17.512C67.1791 17.4 67.5551 17.192 67.9231 16.888C68.2911 16.584 68.6271 16.152 68.9311 15.592L69.3871 15.784C69.2111 16.344 68.9151 16.904 68.4991 17.464C68.0991 18.008 67.5791 18.456 66.9391 18.808C66.2991 19.16 65.5471 19.336 64.6831 19.336C63.5951 19.336 62.6351 19.096 61.8031 18.616C60.9711 18.136 60.3231 17.424 59.8591 16.48C59.3951 15.52 59.1631 14.352 59.1631 12.976C59.1631 11.52 59.4031 10.296 59.8831 9.304C60.3791 8.312 61.0591 7.56 61.9231 7.048C62.7871 6.52 63.7711 6.256 64.8751 6.256ZM75.4803 2.656V6.616H78.5523V7.096H75.4803V16.648C75.4803 17.224 75.5843 17.632 75.7923 17.872C76.0003 18.112 76.2963 18.232 76.6803 18.232C77.0483 18.232 77.3843 18.096 77.6883 17.824C77.9923 17.536 78.2643 17.064 78.5043 16.408L78.9363 16.6C78.6963 17.384 78.3203 18.04 77.8083 18.568C77.3123 19.08 76.6083 19.336 75.6963 19.336C75.1523 19.336 74.6883 19.264 74.3043 19.12C73.9363 18.992 73.6163 18.8 73.3443 18.544C72.9923 18.176 72.7523 17.736 72.6243 17.224C72.5123 16.712 72.4563 16.032 72.4563 15.184V7.096H70.3443V6.616H72.4563V3.28C73.0323 3.264 73.5683 3.208 74.0643 3.112C74.5603 3.016 75.0323 2.864 75.4803 2.656Z" fill="#DDD9D6"/>
</svg>
